<?xml version="1.0" encoding="UTF-8" standalone="no"?>
<!DOCTYPE svg PUBLIC "-//W3C//DTD SVG 1.1//EN" "http://www.w3.org/Graphics/SVG/1.1/DTD/svg11.dtd">
<svg width="400" height="300" viewBox="0 0 400 300" version="1.1" xmlns="http://www.w3.org/2000/svg" xmlns:xlink="http://www.w3.org/1999/xlink" xml:space="preserve" xmlns:serif="http://www.serif.com/" style="fill-rule:evenodd;clip-rule:evenodd;stroke-linejoin:round;stroke-miterlimit:2;">
    <g id="sun" transform="matrix(1.10764,0,0,1.10764,3.79571,2.82764)">
        <circle cx="126.629" cy="100.348" r="18.766" style="fill:rgb(228,228,228);"/>
    </g>
    <g id="line" transform="matrix(1.49254,-0.874675,0.500096,0.853361,-170.544,203.356)">
        <rect x="100.349" y="135.745" width="200.087" height="14.255" style="fill:rgb(228,228,228);"/>
    </g>
    <path id="landscape" d="M277.059,122.49C290.131,136.582 301.1,157.279 305.171,163.253C318.245,182.44 304.163,234.817 304.163,234.817C304.163,234.817 123.28,250.062 98.544,235.321C96.276,233.97 94.74,232.117 93.835,229.866L190.006,173.506C193.845,177.004 197.691,179.089 201.857,178.12C207.991,176.693 212.87,168.015 217.742,157.252L277.059,122.49ZM111.015,184.499C125.898,164.355 146.019,146.236 155.744,146.37C160.36,146.434 164.48,148.233 168.262,150.95L111.015,184.499Z" style="fill:rgb(228,228,228);"/>
    <path id="frame" d="M321.851,96.241L321.851,236.924C321.851,241.096 318.464,244.483 314.292,244.483L85.708,244.483C82.221,244.483 79.283,242.117 78.412,238.904L99.152,226.749L304.942,226.749L304.942,106.15L321.851,96.241ZM78.149,203.759L78.149,63.076C78.149,58.904 81.536,55.517 85.708,55.517L314.292,55.517C317.779,55.517 320.717,57.883 321.588,61.096L300.848,73.251L95.058,73.251L95.058,193.85L78.149,203.759Z" style="fill:rgb(228,228,228);"/>
</svg>
